Coordinates
version=1
nRows=9
nColumns=63
inDegrees=yes

Units are S.I. units (second, meters, Newtons, ...)
If the header above contains a line with 'inDegrees', this indicates whether rotational values are in degrees (yes) or radians (no).

endheader
time	pelvis_tilt	pelvis_list	pelvis_rotation	pelvis_tx	pelvis_ty	pelvis_tz	hip_flexion_r	hip_adduction_r	hip_rotation_r	knee_angle_r	knee_angle_r_beta	ankle_angle_r	subtalar_angle_r	mtp_angle_r	hip_flexion_l	hip_adduction_l	hip_rotation_l	knee_angle_l	knee_angle_l_beta	ankle_angle_l	subtalar_angle_l	mtp_angle_l	L5_S1_Flex_Ext	L5_S1_Lat_Bending	L5_S1_axial_rotation	L4_L5_Flex_Ext	L4_L5_Lat_Bending	L4_L5_axial_rotation	L3_L4_Flex_Ext	L3_L4_Lat_Bending	L3_L4_axial_rotation	L2_L3_Flex_Ext	L2_L3_Lat_Bending	L2_L3_axial_rotation	L1_L2_Flex_Ext	L1_L2_Lat_Bending	L1_L2_axial_rotation	L1_T12_Flex_Ext	L1_T12_Lat_Bending	L1_T12_axial_rotation	Abs_r3	Abs_r2	Abs_r1	Abs_t1	Abs_t2	neck_flexion	neck_bending	neck_rotation	arm_flex_r	arm_add_r	arm_rot_r	elbow_flex_r	pro_sup_r	wrist_flex_r	wrist_dev_r	arm_flex_l	arm_add_l	arm_rot_l	elbow_flex_l	pro_sup_l	wrist_flex_l	wrist_dev_l
      3.20000000	     -3.56399223	     -8.24055619	    102.31881740	      0.24478662	      0.81715264	      0.70501777	      4.61768582	     -4.71939687	    -36.37141959	     12.42451797	      0.21684875	     16.21998618	     18.33233676	      0.00000000	      5.70291106	      1.48383574	     19.16315234	      4.62689338	      0.08075452	     -4.06427535	    -17.36842173	      0.00000000	      0.22095677	      0.62949203	      0.13985725	      0.41033882	      0.83722440	      0.14859833	      0.36300988	      1.53054692	      0.14859833	      0.25253150	      1.53054692	      0.12237509	      0.20518046	      1.28366015	      0.11363401	      0.12625470	      0.97508316	      0.10489294	      1.57827214	      7.12093975	      0.77784405	      0.00000000	      0.00000000	      4.03665084	    -12.44530318	      1.94010310	     11.19178397	    -13.48516432	      4.64081551	    114.57884910	     89.30878552	     25.19012477	      6.17891850	     34.76118432	    -11.12304578	     38.64775038	    106.32736697	     78.61177572	     15.93938855	     20.10293678
      3.21666667	     -3.77284014	     -8.31697769	    101.80396079	      0.24587050	      0.81686350	      0.70446723	      4.72212398	     -4.89313704	    -35.95919826	     12.45631587	      0.21740372	     15.93336040	     18.27202929	      0.00000000	      5.51006469	      1.55247807	     18.70996053	      4.29065154	      0.07488600	     -3.69643571	    -17.14280082	      0.00000000	      0.22362232	      0.59467361	      0.28521736	      0.41528901	      0.79091591	      0.30304344	      0.36738911	      1.44588942	      0.30304344	      0.25557795	      1.44588942	      0.24956519	      0.20765569	      1.21265843	      0.23173910	      0.12777779	      0.92114943	      0.21391302	      1.59731188	      6.72706684	      1.58629337	      0.00000000	      0.00000000	      4.42854107	    -12.07751862	      1.44478720	     12.01237423	    -12.45678110	      5.10192640	    112.07860184	     89.27502714	     16.28037592	     -0.79800074	     38.67733253	    -10.70177140	     41.69797038	    104.57119055	     72.07428525	     13.40652267	     21.55903968
      3.23333333	     -4.09195656	     -8.50476817	    101.21186415	      0.24730608	      0.81640942	      0.70371272	      4.93647926	     -5.17193989	    -35.42553901	     12.51479081	      0.21842430	     15.82895854	     18.20464560	      0.00000000	      5.40543725	      1.73297868	     18.26908345	      4.00325535	      0.06986999	     -3.52546541	    -16.95114301	      0.00000000	      0.23772207	      0.54691203	      0.37509527	      0.44147365	      0.72739300	      0.39853872	      0.39055359	      1.32976191	      0.39853872	      0.27169255	      1.32976191	      0.32820836	      0.22074871	      1.11526301	      0.30476490	      0.13583439	      0.84716674	      0.28132145	      1.69802497	      6.18677827	      2.08616734	      0.00000000	      0.00000000	      5.01370161	    -11.86398830	      1.38041799	     13.79352514	    -10.50569697	      5.58972276	    108.60620091	     89.10302565	      7.48895393	     -6.70616382	     42.16218201	    -10.96911245	     45.11367368	    103.85051552	     66.47793406	     11.88396412	     21.41793408
      3.25000000	     -4.39049485	     -8.71017585	    100.67765027	      0.24862480	      0.81584810	      0.70313656	      5.18494842	     -5.43430821	    -34.85431713	     12.59250832	      0.21978073	     15.97993895	     18.16038380	      0.00000000	      5.35454063	      1.91100380	     17.87364737	      3.77501428	      0.06588643	     -3.36785872	    -16.76167519	      0.00000000	      0.24790260	      0.51209021	      0.38861259	      0.46037992	      0.68107998	      0.41290088	      0.40727919	      1.24509614	      0.41290088	      0.28332788	      1.24509614	      0.34003602	      0.23020236	      1.04425436	      0.31574773	      0.14165155	      0.79322774	      0.29145944	      1.77074350	      5.79286689	      2.16134664	      0.00000000	      0.00000000	      5.93469822	    -11.85751240	      2.08649110	     16.51928340	     -7.48591535	      5.09079817	    104.60116115	     88.79048368	      2.82990745	     -8.13566633	     44.97493795	    -11.58636790	     48.29424043	    104.09442066	     61.20711932	     11.67615005	     21.11411326
      3.26666667	     -4.60706670	     -8.92746990	    100.12887644	      0.24981331	      0.81519187	      0.70288817	      5.51321714	     -5.62507911	    -34.20390620	     12.71076452	      0.22184469	     16.36189978	     18.15809263	      0.00000000	      5.36029485	      2.01741435	     17.64963455	      3.56769307	      0.06226799	     -3.21946812	    -16.66526560	      0.00000000	      0.25658383	      0.49345848	      0.38089311	      0.47650183	      0.65629978	      0.40469893	      0.42154157	      1.19979495	      0.40469893	      0.29324966	      1.19979495	      0.33328147	      0.23826374	      1.00626053	      0.30947565	      0.14661200	      0.76436718	      0.28566983	      1.83275264	      5.58210100	      2.11841321	      0.00000000	      0.00000000	      6.96929415	    -12.04412794	      2.90176408	     19.87402555	     -3.82165040	      3.67739022	    100.11750126	     88.35492059	      1.24398441	     -6.01454323	     47.13509524	    -12.21802956	     51.14755350	    104.85253496	     57.55410762	     11.65385483	     20.41211139
      3.28333333	     -4.37495428	     -9.12597383	     99.75619035	      0.25050737	      0.81466297	      0.70296372	      5.87600413	     -5.36467426	    -33.77032118	     12.74743982	      0.22248480	     16.62043538	     18.31897422	      0.00000000	      5.45771127	      1.69607327	     17.79375036	      3.35700424	      0.05859078	     -2.93065116	    -16.71550385	      0.00000000	      0.27943984	      0.52373640	      0.37808881	      0.51894774	      0.69656941	      0.40171936	      0.45909172	      1.27341268	      0.40171936	      0.31937180	      1.27341268	      0.33082771	      0.25948784	      1.06800327	      0.30719716	      0.15967193	      0.81126768	      0.28356661	      1.99601087	      5.92461091	      2.10281654	      0.00000000	      0.00000000	      7.70149498	    -12.46030548	      2.64291132	     23.63688733	     -0.17699622	      1.80915163	     94.88701270	     87.77573991	      0.02861121	     -3.78366412	     48.38153429	    -12.15116089	     52.99898121	    105.49977679	     57.26309805	     11.96517591	     20.54446618
      3.30000000	     -4.64520167	     -9.15696327	     99.17820875	      0.25111388	      0.81417343	      0.70356574	      6.11809323	     -5.61781621	    -32.79758651	     12.93280680	      0.22572006	     17.40365473	     18.15347514	      0.00000000	      5.32882269	      1.87185542	     17.69323349	      3.12949995	      0.05462008	     -2.67388769	    -16.75516094	      0.00000000	      0.24235156	      0.51739117	      0.41359280	      0.45007109	      0.68813026	      0.43944235	      0.39815938	      1.25798490	      0.43944235	      0.27698360	      1.25798490	      0.36189370	      0.22504766	      1.05506408	      0.33604415	      0.13847968	      0.80143893	      0.31019460	      1.73109298	      5.85283242	      2.30027909	      0.00000000	      0.00000000	      8.93310592	    -13.13914194	      3.37821658	     27.86574435	      3.49505374	     -0.65390951	     89.93047483	     86.99090006	      0.08895871	      2.81970837	     49.32610482	    -12.30694283	     54.92290950	    106.27046756	     52.16566799	      9.58861910	     21.19579503
      3.31666667	     -4.56904118	     -9.13518136	     98.77393658	      0.25130687	      0.81391842	      0.70414592	      6.29310451	     -5.52192361	    -32.21932560	     12.99982270	      0.22688971	     17.89906691	     18.18725817	      0.00000000	      5.25540414	      1.71297847	     17.88363256	      2.98249707	      0.05205439	     -2.30911198	    -16.84658534	      0.00000000	      0.21937720	      0.53932609	      0.48370375	      0.40740540	      0.71730370	      0.51393523	      0.36041480	      1.31131745	      0.51393523	      0.25072620	      1.31131745	      0.42324078	      0.20371367	      1.09979376	      0.39300929	      0.12535213	      0.83541611	      0.36277781	      1.56698940	      6.10096458	      2.69021513	      0.00000000	      0.00000000	      9.70383408	    -13.72720976	      2.91792174	     32.10489022	      6.22252220	     -2.92905416	     84.47740669	     86.53850310	     -1.39493536	      6.07361340	     49.57004204	    -11.63518009	     55.73096292	    106.26960327	     51.72327571	      8.94245249	     22.46146547
      3.33333333	     -4.12018526	     -9.32942392	     98.58016005	      0.25085222	      0.81337252	      0.70544929	      6.76680817	     -5.14221794	    -31.98514069	     13.06410762	      0.22801169	     18.17698592	     18.34440060	      0.00000000	      5.50992608	      1.25814576	     18.17751406	      2.81717996	      0.04916907	     -1.76895144	    -16.94530753	      0.00000000	      0.23783830	      0.60103293	      0.59127053	      0.44168950	      0.79937380	      0.62822493	      0.39074454	      1.46135146	      0.62822493	      0.27182539	      1.46135146	      0.51736171	      0.22085664	      1.22562635	      0.48040730	      0.13590080	      0.93100001	      0.44345289	      1.69885518	      6.79900470	      3.28846929	      0.00000000	      0.00000000	     10.03067924	    -13.79867425	      2.39303964	     36.17803989	      8.04898214	     -5.39675671	     79.29856059	     86.71460891	     -2.76468439	      7.27305571	     50.03899960	    -10.65852981	     56.68430004	    105.85812837	     51.83481038	      8.78703177	     23.47809188
